<?xml version="1.0" standalone="no"?>
<!DOCTYPE svg PUBLIC "-//W3C//DTD SVG 20010904//EN"
 "http://www.w3.org/TR/2001/REC-SVG-20010904/DTD/svg10.dtd">
<svg version="1.0" xmlns="http://www.w3.org/2000/svg"
 width="492.000000pt" height="492.000000pt" viewBox="0 0 492.000000 492.000000"
 preserveAspectRatio="xMidYMid meet">
<metadata>
Created by potrace 1.14, written by Peter Selinger 2001-2017
</metadata>
<g transform="translate(0.000000,492.000000) scale(0.100000,-0.100000)"
fill="#000000" stroke="none">
<path d="M0 2460 l0 -2460 2460 0 2460 0 0 2460 0 2460 -2460 0 -2460 0 0
-2460z m1180 2005 l0 -135 -290 0 -290 0 0 -580 0 -580 -145 0 -145 0 0 715 0
715 435 0 435 0 0 -135z m3430 -580 l0 -715 -145 0 -145 0 0 580 0 580 -290 0
-290 0 0 135 0 135 435 0 435 0 0 -715z m-2407 -1408 c131 -529 238 -965 237
-970 0 -4 -89 -6 -197 -5 l-198 3 -45 215 -46 215 -237 3 c-130 1 -237 -1
-237 -5 0 -5 -20 -103 -45 -218 -25 -116 -45 -211 -45 -212 0 -2 -90 -3 -201
-3 -186 0 -200 1 -195 18 3 9 109 440 236 957 126 517 232 946 235 953 3 9 63
12 252 12 l248 0 238 -963z m1332 486 c195 -43 322 -149 377 -313 22 -63 23
-80 26 -607 l3 -543 -190 0 -191 0 0 128 0 127 -35 -72 c-67 -138 -196 -203
-398 -203 -284 0 -467 178 -467 453 0 219 131 380 361 443 49 14 118 19 294
24 l230 5 3 38 c2 21 -2 62 -8 92 -9 42 -19 61 -50 89 -49 44 -74 51 -180 50
-67 0 -94 -5 -127 -22 -48 -25 -79 -61 -88 -102 l-7 -30 -185 0 -185 0 7 48
c34 230 208 378 485 411 93 11 232 4 325 -16z m-2935 -1833 l0 -580 290 0 290
0 0 -135 0 -135 -435 0 -435 0 0 715 0 715 145 0 145 0 0 -580z m4010 -135 l0
-715 -435 0 -435 0 0 135 0 135 290 0 290 0 0 580 0 580 145 0 145 0 0 -715z"/>
<path d="M1691 2953 c-13 -71 -50 -254 -82 -408 -32 -154 -59 -283 -59 -287 0
-5 74 -8 165 -8 125 0 165 3 165 13 1 23 -153 802 -160 810 -3 4 -17 -50 -29
-120z"/>
<path d="M3165 2158 c-78 -28 -125 -93 -125 -173 0 -60 19 -103 63 -142 117
-102 367 -51 425 87 8 19 17 81 20 138 l5 102 -179 -1 c-99 0 -192 -5 -209
-11z"/>
</g>
</svg>
